<svg width="800" height="400" viewBox="0 0 800 400" fill="none" xmlns="http://www.w3.org/2000/svg">
<rect width="800" height="400" fill="#F9FAFB"/>
<path d="M207 192H593V293H207V192Z" fill="#325476"/>
<path d="M224.096 248.2C224.096 244.12 224.912 240.568 226.544 237.544C228.176 234.472 230.432 232.096 233.312 230.416C236.24 228.736 239.576 227.896 243.32 227.896C248.168 227.896 252.152 229.072 255.272 231.424C258.44 233.776 260.528 237.04 261.536 241.216H254.48C253.808 238.816 252.488 236.92 250.52 235.528C248.6 234.136 246.2 233.44 243.32 233.44C239.576 233.44 236.552 234.736 234.248 237.328C231.944 239.872 230.792 243.496 230.792 248.2C230.792 252.952 231.944 256.624 234.248 259.216C236.552 261.808 239.576 263.104 243.32 263.104C246.2 263.104 248.6 262.432 250.52 261.088C252.44 259.744 253.76 257.824 254.48 255.328H261.536C260.48 259.36 258.368 262.6 255.2 265.048C252.032 267.448 248.072 268.648 243.32 268.648C239.576 268.648 236.24 267.808 233.312 266.128C230.432 264.448 228.176 262.072 226.544 259C224.912 255.928 224.096 252.328 224.096 248.2ZM289.862 227.824C292.838 227.824 295.526 228.472 297.926 229.768C300.326 231.016 302.198 232.912 303.542 235.456C304.934 238 305.63 241.096 305.63 244.744V268H299.15V245.68C299.15 241.744 298.166 238.744 296.198 236.68C294.23 234.568 291.542 233.512 288.134 233.512C284.678 233.512 281.918 234.592 279.854 236.752C277.838 238.912 276.83 242.056 276.83 246.184V268H270.278V214.72H276.83V234.16C278.126 232.144 279.902 230.584 282.158 229.48C284.462 228.376 287.03 227.824 289.862 227.824ZM319.717 222.136C318.469 222.136 317.413 221.704 316.549 220.84C315.685 219.976 315.253 218.92 315.253 217.672C315.253 216.424 315.685 215.368 316.549 214.504C317.413 213.64 318.469 213.208 319.717 213.208C320.917 213.208 321.925 213.64 322.741 214.504C323.605 215.368 324.037 216.424 324.037 217.672C324.037 218.92 323.605 219.976 322.741 220.84C321.925 221.704 320.917 222.136 319.717 222.136ZM322.885 228.544V268H316.333V228.544H322.885ZM348.02 268.648C344.996 268.648 342.284 268.144 339.884 267.136C337.484 266.08 335.588 264.64 334.196 262.816C332.804 260.944 332.036 258.808 331.892 256.408H338.66C338.852 258.376 339.764 259.984 341.396 261.232C343.076 262.48 345.26 263.104 347.948 263.104C350.444 263.104 352.412 262.552 353.852 261.448C355.292 260.344 356.012 258.952 356.012 257.272C356.012 255.544 355.244 254.272 353.708 253.456C352.172 252.592 349.796 251.752 346.58 250.936C343.652 250.168 341.252 249.4 339.38 248.632C337.556 247.816 335.972 246.64 334.628 245.104C333.332 243.52 332.684 241.456 332.684 238.912C332.684 236.896 333.284 235.048 334.484 233.368C335.684 231.688 337.388 230.368 339.596 229.408C341.804 228.4 344.324 227.896 347.156 227.896C351.524 227.896 355.052 229 357.74 231.208C360.428 233.416 361.868 236.44 362.06 240.28H355.508C355.364 238.216 354.524 236.56 352.988 235.312C351.5 234.064 349.484 233.44 346.94 233.44C344.588 233.44 342.716 233.944 341.324 234.952C339.932 235.96 339.236 237.28 339.236 238.912C339.236 240.208 339.644 241.288 340.46 242.152C341.324 242.968 342.38 243.64 343.628 244.168C344.924 244.648 346.7 245.2 348.956 245.824C351.788 246.592 354.092 247.36 355.868 248.128C357.644 248.848 359.156 249.952 360.404 251.44C361.7 252.928 362.372 254.872 362.42 257.272C362.42 259.432 361.82 261.376 360.62 263.104C359.42 264.832 357.716 266.2 355.508 267.208C353.348 268.168 350.852 268.648 348.02 268.648ZM407.669 246.76C407.669 248.008 407.597 249.328 407.453 250.72H375.917C376.157 254.608 377.477 257.656 379.877 259.864C382.325 262.024 385.277 263.104 388.733 263.104C391.565 263.104 393.917 262.456 395.789 261.16C397.709 259.816 399.053 258.04 399.821 255.832H406.877C405.821 259.624 403.709 262.72 400.541 265.12C397.373 267.472 393.437 268.648 388.733 268.648C384.989 268.648 381.629 267.808 378.653 266.128C375.725 264.448 373.421 262.072 371.741 259C370.061 255.88 369.221 252.28 369.221 248.2C369.221 244.12 370.037 240.544 371.669 237.472C373.301 234.4 375.581 232.048 378.509 230.416C381.485 228.736 384.893 227.896 388.733 227.896C392.477 227.896 395.789 228.712 398.669 230.344C401.549 231.976 403.757 234.232 405.293 237.112C406.877 239.944 407.669 243.16 407.669 246.76ZM400.901 245.392C400.901 242.896 400.349 240.76 399.245 238.984C398.141 237.16 396.629 235.792 394.709 234.88C392.837 233.92 390.749 233.44 388.445 233.44C385.133 233.44 382.301 234.496 379.949 236.608C377.645 238.72 376.325 241.648 375.989 245.392H400.901ZM422.869 214.72V268H416.317V214.72H422.869Z" fill="#F9FAFB"/>
<path d="M588 197H447V288H588V197Z" fill="#F9FAFB"/>
<path d="M461.096 248.2C461.096 244.12 461.912 240.568 463.544 237.544C465.176 234.472 467.432 232.096 470.312 230.416C473.24 228.736 476.576 227.896 480.32 227.896C485.168 227.896 489.152 229.072 492.272 231.424C495.44 233.776 497.528 237.04 498.536 241.216H491.48C490.808 238.816 489.488 236.92 487.52 235.528C485.6 234.136 483.2 233.44 480.32 233.44C476.576 233.44 473.552 234.736 471.248 237.328C468.944 239.872 467.792 243.496 467.792 248.2C467.792 252.952 468.944 256.624 471.248 259.216C473.552 261.808 476.576 263.104 480.32 263.104C483.2 263.104 485.6 262.432 487.52 261.088C489.44 259.744 490.76 257.824 491.48 255.328H498.536C497.48 259.36 495.368 262.6 492.2 265.048C489.032 267.448 485.072 268.648 480.32 268.648C476.576 268.648 473.24 267.808 470.312 266.128C467.432 264.448 465.176 262.072 463.544 259C461.912 255.928 461.096 252.328 461.096 248.2ZM521.246 268.648C518.222 268.648 515.51 268.144 513.11 267.136C510.71 266.08 508.814 264.64 507.422 262.816C506.03 260.944 505.262 258.808 505.118 256.408H511.886C512.078 258.376 512.99 259.984 514.622 261.232C516.302 262.48 518.486 263.104 521.174 263.104C523.67 263.104 525.638 262.552 527.078 261.448C528.518 260.344 529.238 258.952 529.238 257.272C529.238 255.544 528.47 254.272 526.934 253.456C525.398 252.592 523.022 251.752 519.806 250.936C516.878 250.168 514.478 249.4 512.606 248.632C510.782 247.816 509.198 246.64 507.854 245.104C506.558 243.52 505.91 241.456 505.91 238.912C505.91 236.896 506.51 235.048 507.71 233.368C508.91 231.688 510.614 230.368 512.822 229.408C515.03 228.4 517.55 227.896 520.382 227.896C524.75 227.896 528.278 229 530.966 231.208C533.654 233.416 535.094 236.44 535.286 240.28H528.734C528.59 238.216 527.75 236.56 526.214 235.312C524.726 234.064 522.71 233.44 520.166 233.44C517.814 233.44 515.942 233.944 514.55 234.952C513.158 235.96 512.462 237.28 512.462 238.912C512.462 240.208 512.87 241.288 513.686 242.152C514.55 242.968 515.606 243.64 516.854 244.168C518.15 244.648 519.926 245.2 522.182 245.824C525.014 246.592 527.318 247.36 529.094 248.128C530.87 248.848 532.382 249.952 533.63 251.44C534.926 252.928 535.598 254.872 535.646 257.272C535.646 259.432 535.046 261.376 533.846 263.104C532.646 264.832 530.942 266.2 528.734 267.208C526.574 268.168 524.078 268.648 521.246 268.648ZM558.864 268.648C555.84 268.648 553.128 268.144 550.728 267.136C548.328 266.08 546.432 264.64 545.04 262.816C543.648 260.944 542.88 258.808 542.736 256.408H549.504C549.696 258.376 550.608 259.984 552.24 261.232C553.92 262.48 556.104 263.104 558.792 263.104C561.288 263.104 563.256 262.552 564.696 261.448C566.136 260.344 566.856 258.952 566.856 257.272C566.856 255.544 566.088 254.272 564.552 253.456C563.016 252.592 560.64 251.752 557.424 250.936C554.496 250.168 552.096 249.4 550.224 248.632C548.4 247.816 546.816 246.64 545.472 245.104C544.176 243.52 543.528 241.456 543.528 238.912C543.528 236.896 544.128 235.048 545.328 233.368C546.528 231.688 548.232 230.368 550.44 229.408C552.648 228.4 555.168 227.896 558 227.896C562.368 227.896 565.896 229 568.584 231.208C571.272 233.416 572.712 236.44 572.904 240.28H566.352C566.208 238.216 565.368 236.56 563.832 235.312C562.344 234.064 560.328 233.44 557.784 233.44C555.432 233.44 553.56 233.944 552.168 234.952C550.776 235.96 550.08 237.28 550.08 238.912C550.08 240.208 550.488 241.288 551.304 242.152C552.168 242.968 553.224 243.64 554.472 244.168C555.768 244.648 557.544 245.2 559.8 245.824C562.632 246.592 564.936 247.36 566.712 248.128C568.488 248.848 570 249.952 571.248 251.44C572.544 252.928 573.216 254.872 573.264 257.272C573.264 259.432 572.664 261.376 571.464 263.104C570.264 264.832 568.56 266.2 566.352 267.208C564.192 268.168 561.696 268.648 558.864 268.648Z" fill="#325476"/>
<path d="M315.045 208.534C314.468 208.534 314 208.067 314 207.488V188.496C314 187.92 314.468 187.45 315.045 187.45H343.596C343.652 187.393 343.717 187.326 343.782 187.256C345.42 185.555 350.399 180.374 349.488 174.33C348.81 169.848 345.054 165.689 338.323 161.968C330.11 157.427 323.991 156.465 320.618 159.196C317.336 161.855 317.196 167.674 318.136 170.771C318.929 173.383 320.219 174.971 321.971 175.495C326.125 176.748 331.831 172.059 331.885 172.012C332.326 171.641 332.985 171.7 333.357 172.145C333.727 172.586 333.667 173.246 333.226 173.615C332.958 173.838 326.622 179.053 321.375 177.499C318.907 176.76 317.145 174.702 316.135 171.377C314.998 167.625 315.226 160.865 319.302 157.569C323.442 154.216 330.185 155.079 339.334 160.14C346.662 164.19 350.776 168.862 351.555 174.02C352.622 181.081 347.102 186.82 345.29 188.704C345.093 188.911 344.942 189.065 344.859 189.166C344.66 189.402 344.368 189.541 344.055 189.541H316.091V207.488C316.091 208.067 315.625 208.534 315.045 208.534Z" fill="#325476"/>
<path d="M380.383 160.532L384.042 153.566L391.098 160.532L383.519 163.406L350.646 193.461V188.496L380.383 160.532Z" fill="#325476"/>
<path d="M349.601 195.834V188.044L379.541 159.89L383.773 151.83L392.991 160.934L384.075 164.313L349.601 195.834ZM351.692 188.949V191.089L383.15 162.428L389.208 160.13L384.312 155.298L381.102 161.291L351.692 188.949Z" fill="#325476"/>
<path d="M385.61 150.077L394.758 159.486L400.768 154.782L391.098 144.066L385.61 150.077Z" fill="#325476"/>
<path d="M394.661 160.891L384.172 150.101L391.1 142.512L402.295 154.917L394.661 160.891ZM387.048 150.055L394.855 158.083L399.241 154.649L391.097 145.622L387.048 150.055Z" fill="#325476"/>
<path d="M393.19 141.453L403.643 153.566L420.108 137.533L438.664 122.636L440.755 118.193L432.392 109.045H427.426L409.654 127.601L393.19 141.453Z" fill="#325476"/>
<path d="M403.578 155.088L391.706 141.334L408.98 126.801L426.978 108H432.853L442 118.005L439.509 123.3L420.765 138.346L403.578 155.088ZM394.672 141.57L403.708 152.042L419.379 136.782L437.818 121.971L439.511 118.379L431.93 110.088H427.875L410.41 128.323L394.672 141.57Z" fill="#325476"/>
<path d="M350 187.5H207V194H350V187.5Z" fill="#325476"/>
</svg>
