<svg width="386" height="101" viewBox="0 0 386 101" fill="none" xmlns="http://www.w3.org/2000/svg">
<path d="M0 0H386V101H0V0Z" fill="#325476"/>
<path d="M17.0917 56.2C17.0917 52.12 17.9077 48.568 19.5397 45.544C21.1717 42.472 23.4277 40.096 26.3077 38.416C29.2357 36.736 32.5717 35.896 36.3157 35.896C41.1637 35.896 45.1477 37.072 48.2677 39.424C51.4357 41.776 53.5237 45.04 54.5317 49.216H47.4757C46.8037 46.816 45.4837 44.92 43.5157 43.528C41.5957 42.136 39.1957 41.44 36.3157 41.44C32.5717 41.44 29.5477 42.736 27.2437 45.328C24.9397 47.872 23.7877 51.496 23.7877 56.2C23.7877 60.952 24.9397 64.624 27.2437 67.216C29.5477 69.808 32.5717 71.104 36.3157 71.104C39.1957 71.104 41.5957 70.432 43.5157 69.088C45.4357 67.744 46.7557 65.824 47.4757 63.328H54.5317C53.4757 67.36 51.3637 70.6 48.1957 73.048C45.0277 75.448 41.0677 76.648 36.3157 76.648C32.5717 76.648 29.2357 75.808 26.3077 74.128C23.4277 72.448 21.1717 70.072 19.5397 67C17.9077 63.928 17.0917 60.328 17.0917 56.2ZM82.8581 35.824C85.8341 35.824 88.5221 36.472 90.9221 37.768C93.3221 39.016 95.1941 40.912 96.5381 43.456C97.9301 46 98.6261 49.096 98.6261 52.744V76H92.1461V53.68C92.1461 49.744 91.1621 46.744 89.1941 44.68C87.2261 42.568 84.5381 41.512 81.1301 41.512C77.6741 41.512 74.9141 42.592 72.8501 44.752C70.8341 46.912 69.8261 50.056 69.8261 54.184V76H63.2741V22.72H69.8261V42.16C71.1221 40.144 72.8981 38.584 75.1541 37.48C77.4581 36.376 80.0261 35.824 82.8581 35.824ZM112.713 30.136C111.465 30.136 110.409 29.704 109.545 28.84C108.681 27.976 108.249 26.92 108.249 25.672C108.249 24.424 108.681 23.368 109.545 22.504C110.409 21.64 111.465 21.208 112.713 21.208C113.913 21.208 114.921 21.64 115.737 22.504C116.601 23.368 117.033 24.424 117.033 25.672C117.033 26.92 116.601 27.976 115.737 28.84C114.921 29.704 113.913 30.136 112.713 30.136ZM115.881 36.544V76H109.329V36.544H115.881ZM141.016 76.648C137.992 76.648 135.28 76.144 132.88 75.136C130.48 74.08 128.584 72.64 127.192 70.816C125.8 68.944 125.032 66.808 124.888 64.408H131.656C131.848 66.376 132.76 67.984 134.392 69.232C136.072 70.48 138.256 71.104 140.944 71.104C143.44 71.104 145.408 70.552 146.848 69.448C148.288 68.344 149.008 66.952 149.008 65.272C149.008 63.544 148.24 62.272 146.704 61.456C145.168 60.592 142.792 59.752 139.576 58.936C136.648 58.168 134.248 57.4 132.376 56.632C130.552 55.816 128.968 54.64 127.624 53.104C126.328 51.52 125.68 49.456 125.68 46.912C125.68 44.896 126.28 43.048 127.48 41.368C128.68 39.688 130.384 38.368 132.592 37.408C134.8 36.4 137.32 35.896 140.152 35.896C144.52 35.896 148.048 37 150.736 39.208C153.424 41.416 154.864 44.44 155.056 48.28H148.504C148.36 46.216 147.52 44.56 145.984 43.312C144.496 42.064 142.48 41.44 139.936 41.44C137.584 41.44 135.712 41.944 134.32 42.952C132.928 43.96 132.232 45.28 132.232 46.912C132.232 48.208 132.64 49.288 133.456 50.152C134.32 50.968 135.376 51.64 136.624 52.168C137.92 52.648 139.696 53.2 141.952 53.824C144.784 54.592 147.088 55.36 148.864 56.128C150.64 56.848 152.152 57.952 153.4 59.44C154.696 60.928 155.368 62.872 155.416 65.272C155.416 67.432 154.816 69.376 153.616 71.104C152.416 72.832 150.712 74.2 148.504 75.208C146.344 76.168 143.848 76.648 141.016 76.648ZM200.665 54.76C200.665 56.008 200.593 57.328 200.449 58.72H168.913C169.153 62.608 170.473 65.656 172.873 67.864C175.321 70.024 178.273 71.104 181.729 71.104C184.561 71.104 186.913 70.456 188.785 69.16C190.705 67.816 192.049 66.04 192.817 63.832H199.873C198.817 67.624 196.705 70.72 193.537 73.12C190.369 75.472 186.433 76.648 181.729 76.648C177.985 76.648 174.625 75.808 171.649 74.128C168.721 72.448 166.417 70.072 164.737 67C163.057 63.88 162.217 60.28 162.217 56.2C162.217 52.12 163.033 48.544 164.665 45.472C166.297 42.4 168.577 40.048 171.505 38.416C174.481 36.736 177.889 35.896 181.729 35.896C185.473 35.896 188.785 36.712 191.665 38.344C194.545 39.976 196.753 42.232 198.289 45.112C199.873 47.944 200.665 51.16 200.665 54.76ZM193.897 53.392C193.897 50.896 193.345 48.76 192.241 46.984C191.137 45.16 189.625 43.792 187.705 42.88C185.833 41.92 183.745 41.44 181.441 41.44C178.129 41.44 175.297 42.496 172.945 44.608C170.641 46.72 169.321 49.648 168.985 53.392H193.897ZM215.865 22.72V76H209.313V22.72H215.865Z" fill="#F9FAFB"/>
<rect x="240" y="5" width="141" height="91" fill="#F9FAFB"/>
<path d="M254.096 56.2C254.096 52.12 254.912 48.568 256.544 45.544C258.176 42.472 260.432 40.096 263.312 38.416C266.24 36.736 269.576 35.896 273.32 35.896C278.168 35.896 282.152 37.072 285.272 39.424C288.44 41.776 290.528 45.04 291.536 49.216H284.48C283.808 46.816 282.488 44.92 280.52 43.528C278.6 42.136 276.2 41.44 273.32 41.44C269.576 41.44 266.552 42.736 264.248 45.328C261.944 47.872 260.792 51.496 260.792 56.2C260.792 60.952 261.944 64.624 264.248 67.216C266.552 69.808 269.576 71.104 273.32 71.104C276.2 71.104 278.6 70.432 280.52 69.088C282.44 67.744 283.76 65.824 284.48 63.328H291.536C290.48 67.36 288.368 70.6 285.2 73.048C282.032 75.448 278.072 76.648 273.32 76.648C269.576 76.648 266.24 75.808 263.312 74.128C260.432 72.448 258.176 70.072 256.544 67C254.912 63.928 254.096 60.328 254.096 56.2ZM314.246 76.648C311.222 76.648 308.51 76.144 306.11 75.136C303.71 74.08 301.814 72.64 300.422 70.816C299.03 68.944 298.262 66.808 298.118 64.408H304.886C305.078 66.376 305.99 67.984 307.622 69.232C309.302 70.48 311.486 71.104 314.174 71.104C316.67 71.104 318.638 70.552 320.078 69.448C321.518 68.344 322.238 66.952 322.238 65.272C322.238 63.544 321.47 62.272 319.934 61.456C318.398 60.592 316.022 59.752 312.806 58.936C309.878 58.168 307.478 57.4 305.606 56.632C303.782 55.816 302.198 54.64 300.854 53.104C299.558 51.52 298.91 49.456 298.91 46.912C298.91 44.896 299.51 43.048 300.71 41.368C301.91 39.688 303.614 38.368 305.822 37.408C308.03 36.4 310.55 35.896 313.382 35.896C317.75 35.896 321.278 37 323.966 39.208C326.654 41.416 328.094 44.44 328.286 48.28H321.734C321.59 46.216 320.75 44.56 319.214 43.312C317.726 42.064 315.71 41.44 313.166 41.44C310.814 41.44 308.942 41.944 307.55 42.952C306.158 43.96 305.462 45.28 305.462 46.912C305.462 48.208 305.87 49.288 306.686 50.152C307.55 50.968 308.606 51.64 309.854 52.168C311.15 52.648 312.926 53.2 315.182 53.824C318.014 54.592 320.318 55.36 322.094 56.128C323.87 56.848 325.382 57.952 326.63 59.44C327.926 60.928 328.598 62.872 328.646 65.272C328.646 67.432 328.046 69.376 326.846 71.104C325.646 72.832 323.942 74.2 321.734 75.208C319.574 76.168 317.078 76.648 314.246 76.648ZM351.864 76.648C348.84 76.648 346.128 76.144 343.728 75.136C341.328 74.08 339.432 72.64 338.04 70.816C336.648 68.944 335.88 66.808 335.736 64.408H342.504C342.696 66.376 343.608 67.984 345.24 69.232C346.92 70.48 349.104 71.104 351.792 71.104C354.288 71.104 356.256 70.552 357.696 69.448C359.136 68.344 359.856 66.952 359.856 65.272C359.856 63.544 359.088 62.272 357.552 61.456C356.016 60.592 353.64 59.752 350.424 58.936C347.496 58.168 345.096 57.4 343.224 56.632C341.4 55.816 339.816 54.64 338.472 53.104C337.176 51.52 336.528 49.456 336.528 46.912C336.528 44.896 337.128 43.048 338.328 41.368C339.528 39.688 341.232 38.368 343.44 37.408C345.648 36.4 348.168 35.896 351 35.896C355.368 35.896 358.896 37 361.584 39.208C364.272 41.416 365.712 44.44 365.904 48.28H359.352C359.208 46.216 358.368 44.56 356.832 43.312C355.344 42.064 353.328 41.44 350.784 41.44C348.432 41.44 346.56 41.944 345.168 42.952C343.776 43.96 343.08 45.28 343.08 46.912C343.08 48.208 343.488 49.288 344.304 50.152C345.168 50.968 346.224 51.64 347.472 52.168C348.768 52.648 350.544 53.2 352.8 53.824C355.632 54.592 357.936 55.36 359.712 56.128C361.488 56.848 363 57.952 364.248 59.44C365.544 60.928 366.216 62.872 366.264 65.272C366.264 67.432 365.664 69.376 364.464 71.104C363.264 72.832 361.56 74.2 359.352 75.208C357.192 76.168 354.696 76.648 351.864 76.648Z" fill="#325476"/>
</svg>
